<?xml version="1.0" encoding="utf-8"?>
<!-- Generator: Adobe Illustrator 16.0.0, SVG Export Plug-In . SVG Version: 6.00 Build 0)  -->
<!DOCTYPE svg PUBLIC "-//W3C//DTD SVG 1.1//EN" "http://www.w3.org/Graphics/SVG/1.1/DTD/svg11.dtd">
<svg version="1.1" id="Layer_1" xmlns="http://www.w3.org/2000/svg" xmlns:xlink="http://www.w3.org/1999/xlink" x="0px" y="0px"
	 width="1800px" height="1200px" viewBox="0 0 1800 1200" enable-background="new 0 0 1800 1200" xml:space="preserve">
<g>
	<path fill="#FB303A" d="M172.063,875.556c-45.714,0-109.207-7.619-156.19-21.587V672.381h1.27L118.095,846.35
		c5.08,8.889,7.619,12.063,16.508,13.968c11.429,1.27,22.222,1.27,31.746,1.27c61.587,0,103.492-31.11,103.492-87.619
		c0-50.793-35.556-73.65-105.397-106.666l-23.492-11.429C73.016,624.127-0.635,579.683-0.635,484.444
		c0.635-97.143,78.73-160,198.73-160c39.365,0,93.333,4.444,146.667,17.778V516.19h-1.904L240,351.111
		c-5.079-7.619-7.619-8.889-15.238-10.794c-8.254-1.27-15.238-1.27-21.587-1.27c-53.333,0-90.794,30.476-90.794,83.81
		c0,48.889,37.46,71.111,97.143,99.683l27.937,13.968c80.635,38.73,148.571,75.556,148.571,165.715
		C386.032,805.714,300.952,875.556,172.063,875.556z"/>
	<path fill="#FB303A" d="M578.413,490.794v322.539c0,10.159,0,12.063,6.983,18.413l37.461,34.921v1.27H408.889v-1.27l37.461-34.921
		c6.983-6.35,6.983-8.254,6.983-18.413V549.206c0-10.158-0.635-12.063-6.983-19.047l-37.461-38.096v-1.27H578.413z M452.063,392.381
		c0-36.825,27.937-59.683,60.952-59.683c34.286,0,61.588,22.857,61.588,59.683c0,34.286-27.302,56.508-61.588,56.508
		C480.635,448.889,452.063,426.667,452.063,392.381z"/>
	<path fill="#FB303A" d="M923.175,629.206h-1.271l-60.317-71.746c-3.81-4.444-8.254-7.618-13.968-3.81
		c-12.698,8.89-21.588,22.857-33.016,44.445V803.81c0,8.254,0.635,12.063,11.428,19.048l74.921,43.175v1.27H645.715v-1.27
		l37.46-34.921c6.984-6.35,6.984-8.254,6.984-18.413V549.206c0-10.158-0.636-12.063-6.984-19.047l-37.46-38.096v-1.27h169.523
		v97.777c12.698-53.968,45.079-103.492,98.412-103.492c22.857,0,40.636,10.159,52.064,25.397L923.175,629.206z"/>
	<path fill="#FB303A" d="M1095.238,662.223v1.27c0,99.048,50.158,139.683,109.206,139.683c45.714,0,90.794-19.683,116.19-70.477
		h1.27c-19.682,95.873-79.364,140.952-168.254,140.952c-95.873,0-186.666-57.777-186.666-192.381
		c0-140.952,90.158-197.46,191.111-197.46c80.635,0,166.983,38.095,166.983,160.635c0,2.54,0,7.619-0.635,16.508h-229.206V662.223z
		 M1095.238,648.889h112.381c0.635-10.158,0.635-19.683,0.635-22.856c0-99.683-20.317-126.35-52.063-126.35
		C1118.096,499.048,1096.508,537.777,1095.238,648.889z"/>
	<path fill="#FB303A" d="M1754.921,813.333c0,10.159,0.635,12.063,6.983,18.413L1800,866.667v1.27h-214.604v-1.27l36.826-34.921
		c6.349-6.35,6.984-8.889,6.984-17.777c0-11.429,2.539-114.286,2.539-151.111c0-69.207-10.794-114.921-57.777-114.921
		c-24.127,0-42.54,13.968-56.509,33.65v231.746c0,10.159,0,12.063,6.984,18.413l37.46,34.921v1.27h-213.333v-1.27l37.46-34.921
		c6.984-6.35,6.984-8.254,6.984-18.413V549.206c0-10.158-0.635-12.063-6.984-19.047l-37.46-38.096v-1.27h169.524v80.635
		c19.047-53.333,59.682-86.984,121.27-86.984c76.19,0,118.73,55.873,118.73,160.635
		C1756.826,692.698,1755.556,753.016,1754.921,813.333z"/>
</g>
</svg>
