<?xml version="1.0" standalone="no"?>
<!DOCTYPE svg PUBLIC "-//W3C//DTD SVG 20010904//EN"
 "http://www.w3.org/TR/2001/REC-SVG-20010904/DTD/svg10.dtd">
<svg version="1.0" xmlns="http://www.w3.org/2000/svg"
 width="260.000000pt" height="260.000000pt" viewBox="0 0 260.000000 260.000000"
 preserveAspectRatio="xMidYMid meet">
<metadata>
Created by potrace 1.11, written by Peter Selinger 2001-2013
</metadata>
<g transform="translate(0.000000,260.000000) scale(0.100000,-0.100000)"
fill="#000000" stroke="none">
<path d="M564 1723 c-15 -10 -16 -812 -1 -830 15 -20 417 -18 484 2 72 21 131
68 156 123 28 61 29 162 3 211 -21 39 -71 91 -89 91 -7 0 3 12 21 26 42 33 68
87 71 144 4 95 -37 167 -119 208 -54 27 -57 27 -285 30 -126 1 -235 -1 -241
-5z m418 -139 c49 -25 67 -95 38 -150 -23 -41 -58 -52 -181 -53 l-117 -2 3
108 c1 59 3 109 4 111 0 2 52 2 114 1 73 -1 121 -6 139 -15z m3 -340 c92 -43
84 -196 -12 -224 -21 -6 -85 -10 -143 -8 l-105 3 -1 115 c0 63 1 118 3 123 8
13 226 6 258 -9z"/>
<path d="M1384 1723 c-8 -6 -12 -123 -12 -412 0 -223 2 -411 5 -418 6 -16 148
-18 159 -2 3 6 7 78 7 160 l1 149 81 0 82 0 43 -82 c133 -253 120 -238 214
-238 53 0 75 4 79 14 3 7 -34 84 -83 171 l-88 158 46 31 c80 55 113 121 107
221 -6 129 -64 202 -192 240 -49 15 -429 21 -449 8z m406 -149 c41 -21 60 -56
60 -112 0 -95 -47 -122 -211 -122 l-97 0 1 126 1 125 109 -2 c70 -1 119 -6
137 -15z"/>
</g>
</svg>
