<?xml version="1.0" encoding="utf-8"?>
<!-- Generator: Adobe Illustrator 16.0.0, SVG Export Plug-In . SVG Version: 6.00 Build 0)  -->
<!DOCTYPE svg PUBLIC "-//W3C//DTD SVG 1.1//EN" "http://www.w3.org/Graphics/SVG/1.1/DTD/svg11.dtd">
<svg version="1.1" id="Layer_1" xmlns="http://www.w3.org/2000/svg" xmlns:xlink="http://www.w3.org/1999/xlink" x="0px" y="0px"
	 width="50px" height="50px" viewBox="0 0 50 50" enable-background="new 0 0 50 50" xml:space="preserve">
<g>
	<polyline fill="none" stroke="#FFFFFF" stroke-width="2" stroke-miterlimit="10" points="35.438,17.64 20.606,32.36 14.332,26.086 
			"/>
	<g>
		<path fill="#FFFFFF" d="M24.846,3.282c11.975,0,21.717,9.743,21.717,21.718c0,11.976-9.742,21.719-21.717,21.719
			C12.87,46.718,3.127,36.975,3.127,25C3.127,13.024,12.87,3.282,24.846,3.282 M24.846,1.282C11.746,1.282,1.127,11.901,1.127,25
			c0,13.1,10.619,23.719,23.719,23.719c13.099,0,23.717-10.619,23.717-23.719C48.562,11.901,37.944,1.282,24.846,1.282L24.846,1.282
			z"/>
	</g>
</g>
</svg>
